<?xml version="1.0" encoding="utf-8"?>
<!-- Generator: Adobe Illustrator 19.0.0, SVG Export Plug-In . SVG Version: 6.00 Build 0)  -->
<svg version="1.1" id="Layer_1" xmlns="http://www.w3.org/2000/svg" xmlns:xlink="http://www.w3.org/1999/xlink" x="0px" y="0px"
	 viewBox="0 0 24 24" style="enable-background:new 0 0 24 24;" xml:space="preserve">
<style type="text/css">
	.st0{fill:#DD2626;}
</style>
<g id="XMLID_203_">
	<path id="XMLID_204_" class="st0" d="M24,22.4c0,0.9-0.7,1.6-1.6,1.6H1.6C0.7,24,0,23.3,0,22.4V1.6C0,0.7,0.7,0,1.6,0h20.9
		C23.3,0,24,0.7,24,1.6V22.4z M14,6.5h2.7V3.2H14c-2.2,0-4.1,2-4.1,4.4v1.7H7.3v3.4H10v8.2h3.4v-8.2h3.4V9.3h-3.4V7.6
		C13.4,7,13.7,6.5,14,6.5z"/>
</g>
</svg>
