<?xml version="1.0" encoding="utf-8"?>
<!-- Generator: Adobe Illustrator 19.0.0, SVG Export Plug-In . SVG Version: 6.00 Build 0)  -->
<svg version="1.1" id="Layer_1" xmlns="http://www.w3.org/2000/svg" xmlns:xlink="http://www.w3.org/1999/xlink" x="0px" y="0px"
	 viewBox="0 0 137 52.5" style="enable-background:new 0 0 137 52.5;" xml:space="preserve">
<style type="text/css">
	.st0{fill:#FFFFFF;}
</style>
<g id="XMLID_8_">
	<g id="XMLID_242_">
		<g id="XMLID_212_">
			<g id="XMLID_220_">
				<g id="XMLID_221_">
					<g id="XMLID_222_">
						<path id="XMLID_236_" class="st0" d="M33.2,28.9v3.3h4.1v2.3h-4.1v5.4h-2.6V26.6h8v2.3H33.2z"/>
						<path id="XMLID_234_" class="st0" d="M45.3,38.7c-1.1-1-1.7-2.4-1.7-4.4v-7.7h2.6v7.9c0,1.2,0.3,2,0.9,2.5
							c0.6,0.6,1.4,0.9,2.3,0.9c0.9,0,1.7-0.3,2.3-0.9c0.6-0.5,0.9-1.3,0.9-2.5v-7.9H55v7.7c0,2-0.6,3.4-1.7,4.4
							c-1,0.9-2.5,1.4-4,1.4C47.8,40.1,46.3,39.6,45.3,38.7z"/>
						<path id="XMLID_232_" class="st0" d="M61.3,26.6h2.6v11h5.6v2.3h-8.2V26.6z"/>
						<path id="XMLID_230_" class="st0" d="M75.8,33.2c0,2.6,2,4.6,4.5,4.6c1.7,0,3-0.8,3.8-1.8l1.8,1.6c-1.2,1.5-3.2,2.5-5.6,2.5
							c-4.1,0-7.1-3-7.1-6.8s2.9-6.8,7-6.8c2,0,3.7,0.7,4.9,1.9L83.4,30c-0.8-0.8-1.9-1.4-3.2-1.4C77.7,28.7,75.8,30.7,75.8,33.2z"
							/>
						<path id="XMLID_228_" class="st0" d="M107.7,38.7c-1.1-1-1.7-2.4-1.7-4.4v-7.7h2.6v7.9c0,1.2,0.3,2,0.9,2.5
							c0.6,0.6,1.4,0.9,2.3,0.9c0.9,0,1.7-0.3,2.3-0.9c0.6-0.5,0.9-1.3,0.9-2.5v-7.9h2.6v7.7c0,2-0.6,3.4-1.7,4.4
							c-1,0.9-2.5,1.4-4,1.4C110.2,40.1,108.7,39.6,107.7,38.7z"/>
						<path id="XMLID_226_" class="st0" d="M130.4,34.5l4.8-8h1.8v13.3h-2.6v-7.4l-3.2,5.2h-1.8l-3.2-5.2v7.4h-2.6V26.6h1.8
							L130.4,34.5z"/>
						<path id="XMLID_223_" class="st0" d="M93.2,39.9h-2.6V26.6h5.2c2.6,0,4.6,1.9,4.6,4.6c0,1.7-0.8,3.1-2.1,3.9l3.9,4.8H99
							l-3.4-4.2h-2.5V39.9z M93.2,33.4h2.5c1.3,0,2.3-0.9,2.3-2.3c0-1.3-1-2.3-2.3-2.3h-2.5V33.4z"/>
					</g>
				</g>
			</g>
			<g id="XMLID_213_">
				<g id="XMLID_214_">
					<path id="XMLID_215_" class="st0" d="M23,52.5l-11.5-7L0,52.5V0h23V52.5z M12.5,29.4h-2v3.2H7.9v2h2.6v5.3h2v-5.3H15v-2h-2.6
						V29.4z M7.9,26.6v2h10.7v-2H7.9z"/>
				</g>
			</g>
		</g>
	</g>
</g>
</svg>
