<?xml version="1.0" encoding="utf-8"?>
<!-- Generator: Adobe Illustrator 19.0.0, SVG Export Plug-In . SVG Version: 6.00 Build 0)  -->
<svg version="1.1" id="Layer_1" xmlns="http://www.w3.org/2000/svg" xmlns:xlink="http://www.w3.org/1999/xlink" x="0px" y="0px"
	 viewBox="0 0 200 76.6" style="enable-background:new 0 0 200 76.6;" xml:space="preserve">
<style type="text/css">
	.st0{fill:#DC2727;}
	.st1{fill:#FFFFFF;}
</style>
<g id="XMLID_253_">
	<g id="XMLID_436_">
		<g id="XMLID_437_">
			<path id="XMLID_451_" class="st0" d="M48.4,42.1V47h6v3.3h-6v7.9h-3.7V38.8h11.7v3.3H48.4z"/>
			<path id="XMLID_449_" class="st0" d="M66.1,56.5c-1.6-1.4-2.5-3.5-2.5-6.5V38.8h3.7v11.5c0,1.8,0.5,2.9,1.3,3.6
				c0.8,0.8,2,1.2,3.3,1.2s2.5-0.4,3.3-1.2c0.8-0.7,1.3-1.8,1.3-3.6V38.8h3.7V50c0,3-0.9,5-2.5,6.5c-1.5,1.3-3.6,2-5.8,2
				C69.7,58.5,67.6,57.8,66.1,56.5z"/>
			<path id="XMLID_447_" class="st0" d="M89.5,38.8h3.7v16.1h8.2v3.3H89.5V38.8z"/>
			<path id="XMLID_445_" class="st0" d="M110.6,48.5c0,3.8,2.9,6.7,6.6,6.7c2.5,0,4.4-1.2,5.5-2.7l2.6,2.3c-1.7,2.2-4.6,3.7-8.2,3.7
				c-6.1,0-10.3-4.4-10.3-10s4.2-10,10.2-10c2.9,0,5.4,1.1,7.1,2.8l-2.4,2.6c-1.2-1.2-2.8-2-4.7-2C113.3,41.8,110.6,44.8,110.6,48.5
				z"/>
			<path id="XMLID_443_" class="st0" d="M157.2,56.5c-1.6-1.4-2.5-3.5-2.5-6.5V38.8h3.7v11.5c0,1.8,0.5,2.9,1.3,3.6
				c0.8,0.8,2,1.2,3.3,1.2c1.3,0,2.5-0.4,3.3-1.2c0.8-0.7,1.3-1.8,1.3-3.6V38.8h3.7V50c0,3-0.9,5-2.5,6.5c-1.5,1.3-3.6,2-5.8,2
				C160.8,58.5,158.7,57.8,157.2,56.5z"/>
			<path id="XMLID_441_" class="st0" d="M190.3,50.4l7.1-11.6h2.6v19.4h-3.7V47.4l-4.7,7.6H189l-4.7-7.6v10.8h-3.7V38.8h2.6
				L190.3,50.4z"/>
			<path id="XMLID_438_" class="st0" d="M136,58.2h-3.8V38.8h7.6c3.8,0,6.7,2.8,6.7,6.7c0,2.5-1.2,4.6-3.1,5.7l5.7,7h-4.6l-4.9-6.1
				H136V58.2z M136,48.8h3.7c1.9,0,3.4-1.4,3.4-3.3c0-2-1.5-3.3-3.4-3.3H136V48.8z"/>
		</g>
	</g>
</g>
<polygon id="XMLID_250_" class="st0" points="33.5,76.6 16.8,66.4 0,76.6 0,0 33.5,0 "/>
<g id="XMLID_243_">
	<g id="XMLID_352_">
		<g id="XMLID_355_">
			<polygon id="XMLID_356_" class="st1" points="18.2,42.9 15.2,42.9 15.2,47.6 11.5,47.6 11.5,50.5 15.2,50.5 15.2,58.3 18.2,58.3 
				18.2,50.5 22,50.5 22,47.6 18.2,47.6 			"/>
		</g>
		<g id="XMLID_353_">
			<rect id="XMLID_354_" x="11.5" y="38.8" class="st1" width="15.7" height="3"/>
		</g>
	</g>
</g>
</svg>
