<?xml version="1.0" encoding="utf-8"?>
<!-- Generator: Adobe Illustrator 19.0.0, SVG Export Plug-In . SVG Version: 6.00 Build 0)  -->
<svg version="1.1" id="Layer_1" xmlns="http://www.w3.org/2000/svg" xmlns:xlink="http://www.w3.org/1999/xlink" x="0px" y="0px"
	 viewBox="0 0 1258.7 629.6" style="enable-background:new 0 0 1258.7 629.6;" xml:space="preserve">
<style type="text/css">
	.st0{fill:none;stroke:#555C6C;stroke-width:0.5796;stroke-miterlimit:10;}
</style>
<line id="XMLID_636_" class="st0" x1="314.8" y1="0.2" x2="314.8" y2="92.3"/>
<line id="XMLID_635_" class="st0" x1="314.8" y1="537.2" x2="314.8" y2="629.4"/>
<polygon id="XMLID_66_" class="st0" points="92.3,314.8 203.6,203.6 314.8,92.3 426,203.6 537.2,314.8 426,426 314.8,537.2 
	203.6,426 "/>
<polyline id="XMLID_633_" class="st0" points="629.4,0.2 426,203.6 314.8,314.8 203.6,426 0.2,629.4 "/>
<polyline id="XMLID_632_" class="st0" points="0.2,0.2 203.6,203.6 314.8,314.8 426,426 629.4,629.4 "/>
<line id="XMLID_631_" class="st0" x1="92.3" y1="314.8" x2="0.2" y2="314.8"/>
<line id="XMLID_630_" class="st0" x1="629.4" y1="314.8" x2="537.2" y2="314.8"/>
<line id="XMLID_64_" class="st0" x1="944" y1="0.2" x2="944" y2="92.3"/>
<line id="XMLID_63_" class="st0" x1="944" y1="537.2" x2="944" y2="629.4"/>
<polygon id="XMLID_62_" class="st0" points="721.5,314.8 832.7,203.6 944,92.3 1055.2,203.6 1166.4,314.8 1055.2,426 944,537.2 
	832.7,426 "/>
<polyline id="XMLID_61_" class="st0" points="1258.5,0.2 1055.2,203.6 944,314.8 832.7,426 629.4,629.4 "/>
<polyline id="XMLID_622_" class="st0" points="629.4,0.2 832.7,203.6 944,314.8 1055.2,426 1258.5,629.4 "/>
<line id="XMLID_60_" class="st0" x1="721.5" y1="314.8" x2="629.4" y2="314.8"/>
<line id="XMLID_59_" class="st0" x1="1258.5" y1="314.8" x2="1166.4" y2="314.8"/>
</svg>
