<?xml version="1.0" encoding="utf-8"?>
<!-- Generator: Adobe Illustrator 19.0.0, SVG Export Plug-In . SVG Version: 6.00 Build 0)  -->
<svg version="1.1" id="Layer_1" xmlns="http://www.w3.org/2000/svg" xmlns:xlink="http://www.w3.org/1999/xlink" x="0px" y="0px"
	 viewBox="0 0 24 24" style="enable-background:new 0 0 24 24;" xml:space="preserve">
<style type="text/css">
	.st0{fill:#DD2626;}
</style>
<g id="XMLID_116_">
	<circle id="XMLID_119_" class="st0" cx="16.4" cy="7.6" r="0.8"/>
	<path id="XMLID_127_" class="st0" d="M22.2,0H1.8C0.8,0,0,0.8,0,1.7v20.5c0,1,0.8,1.7,1.8,1.7h20.5c1,0,1.8-0.8,1.8-1.7V1.7
		C24,0.8,23.2,0,22.2,0z M18.5,17.6c0,0.5-0.4,0.8-0.8,0.8H6.4c-0.5,0-0.8-0.4-0.8-0.8v-6.5h2.9c-0.1,0.3-0.1,0.5-0.1,0.8
		c0,2.1,1.7,3.8,3.8,3.8s3.8-1.7,3.8-3.8c0-0.3,0-0.6-0.1-0.8h2.6V17.6z M9.6,12c0-1.4,1.1-2.6,2.6-2.6c1.4,0,2.6,1.1,2.6,2.6
		s-1.1,2.6-2.6,2.6C10.7,14.6,9.6,13.4,9.6,12z M18.5,9.9h-3.2c-0.7-1-1.9-1.7-3.2-1.7c-1.3,0-2.5,0.7-3.2,1.7H5.5V6.4
		c0-0.5,0.4-0.8,0.8-0.8h11.3c0.5,0,0.8,0.4,0.8,0.8V9.9z"/>
</g>
</svg>
