<?xml version="1.0" encoding="utf-8"?>
<!-- Generator: Adobe Illustrator 19.0.0, SVG Export Plug-In . SVG Version: 6.00 Build 0)  -->
<svg version="1.1" id="Layer_1" xmlns="http://www.w3.org/2000/svg" xmlns:xlink="http://www.w3.org/1999/xlink" x="0px" y="0px"
	 viewBox="0 0 23.6 23.6" style="enable-background:new 0 0 23.6 23.6;" xml:space="preserve">
<style type="text/css">
	.st0{fill:#DD2626;}
</style>
<path id="XMLID_115_" class="st0" d="M21.8,0H1.7C0.8,0,0,0.8,0,1.7v20.2c0,0.9,0.8,1.7,1.7,1.7h20.1c1,0,1.7-0.8,1.7-1.7V1.7
	C23.6,0.8,22.8,0,21.8,0z M3.5,8.8H7v11.2H3.5V8.8z M5.2,3.2c1.1,0,2,0.9,2,2c0,1.1-0.9,2-2,2c-1.1,0-2-0.9-2-2
	C3.2,4.2,4.1,3.2,5.2,3.2 M9.2,8.8h3.4v1.5h0c0.5-0.9,1.6-1.8,3.3-1.8c3.5,0,4.2,2.3,4.2,5.4v6.2h-3.5v-5.5c0-1.3,0-3-1.8-3
	c-1.8,0-2.1,1.4-2.1,2.9v5.6H9.2V8.8z"/>
</svg>
