<?xml version="1.0" encoding="utf-8"?>
<!-- Generator: Adobe Illustrator 19.0.0, SVG Export Plug-In . SVG Version: 6.00 Build 0)  -->
<svg version="1.1" id="Layer_1" xmlns="http://www.w3.org/2000/svg" xmlns:xlink="http://www.w3.org/1999/xlink" x="0px" y="0px"
	 viewBox="0 0 13.2 13.2" style="enable-background:new 0 0 13.2 13.2;" xml:space="preserve">
<style type="text/css">
	.st0{fill:#969598;}
</style>
<g id="XMLID_258_">
	<g id="XMLID_261_">
		<path id="XMLID_248_" class="st0" d="M8.3,9.8C7,9.8,5.8,9.3,4.8,8.4c-1.9-1.9-1.9-5,0-6.9c1.9-1.9,5-1.9,6.9,0
			c1.9,1.9,1.9,5,0,6.9l0,0C10.8,9.3,9.5,9.8,8.3,9.8z M8.3,1.6c-0.8,0-1.7,0.3-2.3,1C4.7,3.9,4.7,5.9,6,7.2c1.3,1.3,3.3,1.3,4.6,0
			c1.3-1.3,1.3-3.3,0-4.6C10,1.9,9.1,1.6,8.3,1.6z"/>
	</g>
	<g id="XMLID_260_">
		
			<rect id="XMLID_251_" x="2.2" y="6.7" transform="matrix(0.7071 0.7071 -0.7071 0.7071 8.0758 0.8573)" class="st0" width="1.6" height="6.9"/>
	</g>
</g>
</svg>
