<?xml version="1.0" encoding="utf-8"?>
<!-- Generator: Adobe Illustrator 19.0.0, SVG Export Plug-In . SVG Version: 6.00 Build 0)  -->
<svg version="1.1" id="Layer_1" xmlns="http://www.w3.org/2000/svg" xmlns:xlink="http://www.w3.org/1999/xlink" x="0px" y="0px"
	 viewBox="0 0 24 24" style="enable-background:new 0 0 24 24;" xml:space="preserve">
<style type="text/css">
	.st0{fill:#DD2626;}
</style>
<path id="XMLID_207_" class="st0" d="M24,22.4c0,0.9-0.7,1.6-1.6,1.6H1.6C0.7,24,0,23.3,0,22.4V1.6C0,0.7,0.7,0,1.6,0h20.9
	C23.3,0,24,0.7,24,1.6V22.4z M21,6.9c-0.6,0.3-1.2,0.4-1.9,0.5c0.7-0.4,1.2-1.1,1.5-1.9c-0.6,0.4-1.4,0.7-2.1,0.8
	c-0.6-0.7-1.5-1.1-2.5-1.1c-1.9,0-3.4,1.5-3.4,3.4c0,0.3,0,0.5,0.1,0.8C9.9,9.3,7.4,8,5.7,6C5.5,6.5,5.3,7,5.3,7.7
	c0,1.2,0.6,2.2,1.5,2.8c-0.5,0-1.1-0.2-1.5-0.4c0,0,0,0,0,0c0,1.6,1.2,3,2.7,3.3c-0.3,0.1-0.6,0.1-0.9,0.1c-0.2,0-0.4,0-0.6-0.1
	c0.4,1.3,1.7,2.3,3.1,2.3c-1.1,0.9-2.6,1.4-4.2,1.4c-0.3,0-0.5,0-0.8,0c1.5,1,3.3,1.5,5.2,1.5c6.2,0,9.6-5.1,9.6-9.6
	c0-0.1,0-0.3,0-0.4C19.9,8.2,20.5,7.6,21,6.9z"/>
</svg>
