<?xml version="1.0" encoding="utf-8"?>
<!-- Generator: Adobe Illustrator 19.0.0, SVG Export Plug-In . SVG Version: 6.00 Build 0)  -->
<svg version="1.1" id="Layer_1" xmlns="http://www.w3.org/2000/svg" xmlns:xlink="http://www.w3.org/1999/xlink" x="0px" y="0px"
	 viewBox="0 0 24 24" style="enable-background:new 0 0 24 24;" xml:space="preserve">
<style type="text/css">
	.st0{fill:#DD2626;}
</style>
<g id="XMLID_210_">
	<polygon id="XMLID_214_" class="st0" points="10.3,14.4 14.8,11.8 10.3,9.2 	"/>
	<path id="XMLID_211_" class="st0" d="M22.4,0H1.6C0.7,0,0,0.7,0,1.6v20.9C0,23.3,0.7,24,1.6,24h20.9c0.9,0,1.6-0.7,1.6-1.6V1.6
		C24,0.7,23.3,0,22.4,0z M12,17.9c-8,0-8.4-0.3-8.4-5.9C3.6,6.4,4,6.1,12,6.1c8,0,8.4,0.3,8.4,5.9C20.4,17.6,20,17.9,12,17.9z"/>
</g>
</svg>
